<svg xmlns="http://www.w3.org/2000/svg" width="73" height="19" viewBox="0 0 73 19">
  <metadata><?xpacket begin="﻿" id="W5M0MpCehiHzreSzNTczkc9d"?>
<x:xmpmeta xmlns:x="adobe:ns:meta/" x:xmptk="Adobe XMP Core 5.6-c138 79.159824, 2016/09/14-01:09:01        ">
   <rdf:RDF xmlns:rdf="http://www.w3.org/1999/02/22-rdf-syntax-ns#">
      <rdf:Description rdf:about=""/>
   </rdf:RDF>
</x:xmpmeta>
                                                                                                    
                                                                                                    
                                                                                                    
                                                                                                    
                                                                                                    
                                                                                                    
                                                                                                    
                                                                                                    
                                                                                                    
                                                                                                    
                                                                                                    
                                                                                                    
                                                                                                    
                                                                                                    
                                                                                                    
                                                                                                    
                                                                                                    
                                                                                                    
                                                                                                    
                                                                                                    
                           
<?xpacket end="w"?></metadata>
<defs>
    <style>
      .cls-1 {
        fill: gray;
        fill-rule: evenodd;
      }
    </style>
  </defs>
  <path id="Arrow_Shape" data-name="Arrow Shape" class="cls-1" d="M1055.72,37.553c3.89-1.031,7.77-2.062,12.13-3.219-0.86-1.154-3.15-2.741-3.95-3.818,1.29-.285,4.16.317,5.86-0.059-2.32-3.407-4.41-6.466-6.5-9.526,0.44-.315.89-0.628,1.33-0.944,3.14,4.239,6.33,8.443,9.33,12.776a2.709,2.709,0,0,1-.93,2.412c-5.6,1.4-11.25,2.588-16.89,3.835C1055.97,38.525,1055.85,38.04,1055.72,37.553ZM1033.42,27h10.19c0.01,0.338.03,0.677,0.04,1.015h-10.11Zm16.65,0.2,10.32,1.5c-0.07.546-.15,1.09-0.22,1.636l-10.25-1.484Zm-33.43,1.573c3.34-.391,6.67-0.783,10.01-1.176,0.07,0.44.14,0.88,0.22,1.319q-4.965.914-9.91,1.829C1016.85,30.09,1016.75,29.433,1016.64,28.776Zm-5.8,2.924q-4.725,1.185-9.46,2.372c-0.12-.474-0.25-0.949-0.38-1.423l9.48-2.254Z" transform="translate(-1001 -20)"/>
</svg>
