<svg xmlns="http://www.w3.org/2000/svg" width="17" height="21"><path d="M4.37 6.079v-1.5C4.47 2.186 5.59.147 8.13.002c2.65-.152 4.02 1.576 4.41 3.979.11.669.1 1.355.15 2.094h1.73A2.44 2.44 0 0117 8.537V18.5a2.423 2.423 0 01-2.56 2.485H2.54A2.42 2.42 0 010 18.522V8.667c0-1.614 2.02-2.588 3.71-2.59h.66zm-.03 1.55h-.68c-.69 0-2.04.322-2.04.981v9.784a.9.9 0 001.1 1.032h11.55a.9.9 0 001.1-1.058V8.62a.84.84 0 00-.69-.957c-.33-.05-1.67-.01-2.02-.01 0 .519-.09-2.011.27-1.551a1.053 1.053 0 01-.31 1.44 1.294 1.294 0 01-1.59-.017c-.44-.362-.62.985-.27.553.37-.463.22.066.26-.422H5.98c.03.51-.09-2.019.27-1.556a1.07 1.07 0 01-.33 1.466 1.31 1.31 0 01-1.56-.038c-.46-.376-.63.971-.26.52s.21.089.24-.419zm6.68-1.568l-.01-1.247c-.05-1.189.4-2.121-.66-2.76a2.12 2.12 0 00-2.91.131 3.634 3.634 0 00-1.4 3.876h4.98z" fill="#14212b" fill-rule="evenodd"/></svg>